{"title":"Microbe.et.Gasoil.2015.720p.BRRip.x264.AC3.HORiZON-ArtSubs","uid":13695801,"size":1660103720,"categoryP":"video","categoryS":"movies","magnet":"?xt=urn:btih:403932d0bd6f685fe2463acb31aaf542e0a592c6&amp;dn=Microbe.et.Gasoil.2015.720p.BRRip.x264.AC3.HORiZON-ArtSubs&amp;tr=udp%3A%2F%2Ftracker.leechers-paradise.org%3A6969&amp;tr=udp%3A%2F%2Fzer0day.ch%3A1337&amp;tr=udp%3A%2F%2Fopen.demonii.com%3A1337&amp;tr=udp%3A%2F%2Ftracker.coppersurfer.tk%3A6969&amp;tr=udp%3A%2F%2Fexodus.desync.com%3A6969","seeders":11,"leechers":3,"uploader":"noriegaRJ","files":1,"time":1456699507,"description":"Title: Microbe et Gasoil aka Microbe &amp; Gasoline\r\n\r\nRelease: Microbe.et.Gasoil.2015.720p.BRRip.x264.AC3.HORiZON-ArtSubs\r\n\r\n\r\nIMDB Link:                                                              \nhttp://www.imdb.com/title/tt3882000/\r\n\r\n\r\nPlot: Two young friends embark on a road trip across France in a vehicle they built themselves. A film by Michel Gondry.\r\n\r\n\r\n\r\nGeneral\r\nComplete name                            : Microbe.et.Gasoil.2015.720p.BRRip.x264.AC3.HORiZON-ArtSubs\r\nFormat                                   : Matroska\r\nFormat version                           : Version 2\r\nFile size                                : 1.55 GiB\r\nDuration                                 : 1h 43mn\r\nOverall bit rate                         : 2 137 Kbps\r\nWriting application                      : HandBrake 0.9.5\r\nWriting library                          : libmkv 0.6.4.1\r\n\r\nVideo\r\nID                                       : 1\r\nFormat                                   : AVC\r\nFormat/Info                              : Advanced Video Codec\r\nFormat profile                           :   \r\nFormat settings, CABAC                   : Yes\r\nFormat settings, ReFrames                : 4 frames\r\nCodec ID                                 : V_MPEG4/ISO/AVC\r\nDuration                                 : 1h 43mn\r\nBit rate                                 : 1 516 Kbps\r\nWidth                                    : 1 200 pixels\r\nHeight                                   : 720 pixels\r\nDisplay aspect ratio                     : 1.667\r\nFrame rate mode                          : Constant\r\nFrame rate                               : 24.000 fps\r\nColor space                              : YUV\r\nChroma subsampling                       : 4:2:0\r\nBit depth                                : 8 bits\r\nScan type                                : Progressive\r\nBits/(Pixel*Frame)                       : 0.073\r\nStream size                              : 1.05 GiB (68%)\r\nWriting library                          : x264 core 112\r\nLanguage                                 : English\r\nDefault                                  : Yes\r\nForced                                   : No\r\n\r\nAudio\r\nID                                       : 2\r\nFormat                                   : AC-3\r\nFormat/Info                              : Audio Coding 3\r\nMode extension                           : CM (complete main)\r\nFormat settings, Endianness              : Big\r\nCodec ID                                 : A_AC3\r\nDuration                                 : 1h 43mn\r\nBit rate mode                            : Constant\r\nBit rate                                 : 640 Kbps\r\nChannel count                            : 6 channels\r\nChannel positions                        : Front: L C R, Side: L R, LFE\r\nSampling rate                            : 48.0 KHz\r\nBit depth                                : 16 bits\r\nCompression mode                         : Lossy\r\nStream size                              : 474 MiB (30%)\r\nLanguage                                 : French\r\nDefault                                  : Yes\r\nForced                                   : No\r\n\r\n\r\nThanks to those helping me seed. Leechers remember, the community depends on you. If nobody shares, the freebies go away. Remember, the only reason you can download this free movie is because others are generous enough to keep sharing it with you. If nobody shares, everybody loses, so even if its for an extra hour or two after you get it, remember, others want to see it too, and they can't without you.\r\n\r\n\r\nSEE MY OTHERS UPLOADS:                                                                                      \nhttp://thepiratebay.se/user/noriegaRJ\r\n\r\nAND SEE THIS ANOTHERS UPLOADS FROM &quot;HORiZON-ArtSubs&quot;:                                      \nhttp://thepiratebay.se/user/artsubs                                      \nhttp://thepiratebay.se/user/lletaif","torrent":{"xt":"urn:btih:403932d0bd6f685fe2463acb31aaf542e0a592c6","amp;dn":"Microbe.et.Gasoil.2015.720p.BRRip.x264.AC3.HORiZON-ArtSubs","amp;tr":["udp%3A%2F%2Ftracker.leechers-paradise.org%3A6969","udp%3A%2F%2Fzer0day.ch%3A1337","udp%3A%2F%2Fopen.demonii.com%3A1337","udp%3A%2F%2Ftracker.coppersurfer.tk%3A6969","udp%3A%2F%2Fexodus.desync.com%3A6969"],"infoHash":"403932d0bd6f685fe2463acb31aaf542e0a592c6","infoHashBuffer":{"type":"Buffer","data":[64,57,50,208,189,111,104,95,226,70,58,203,49,170,245,66,224,165,146,198]},"announce":[],"urlList":[]}}